<?xml version="1.0" encoding="UTF-8" standalone="no"?>
<!-- Created with Inkscape (http://www.inkscape.org/) -->

<svg
   width="26.458332mm"
   height="26.458384mm"
   viewBox="0 0 26.458332 26.458384"
   version="1.1"
   id="svg1"
   xml:space="preserve"
   inkscape:version="1.3.2 (091e20ef0f, 2023-11-25)"
   sodipodi:docname="my-garden-green.svg"
   xmlns:inkscape="http://www.inkscape.org/namespaces/inkscape"
   xmlns:sodipodi="http://sodipodi.sourceforge.net/DTD/sodipodi-0.dtd"
   xmlns="http://www.w3.org/2000/svg"
   xmlns:svg="http://www.w3.org/2000/svg"><sodipodi:namedview
     id="namedview1"
     pagecolor="#ffffff"
     bordercolor="#000000"
     borderopacity="0.25"
     inkscape:showpageshadow="2"
     inkscape:pageopacity="0.0"
     inkscape:pagecheckerboard="0"
     inkscape:deskcolor="#d1d1d1"
     inkscape:document-units="mm"
     showguides="true"
     inkscape:zoom="3.920673"
     inkscape:cx="11.222563"
     inkscape:cy="49.353772"
     inkscape:window-width="1098"
     inkscape:window-height="849"
     inkscape:window-x="1920"
     inkscape:window-y="111"
     inkscape:window-maximized="0"
     inkscape:current-layer="layer1"><sodipodi:guide
       position="13.264839,302.99775"
       orientation="1,0"
       id="guide1"
       inkscape:locked="false" /><sodipodi:guide
       position="30.155289,283.7889"
       orientation="0,-1"
       id="guide2"
       inkscape:locked="false" /></sodipodi:namedview><defs
     id="defs1" /><g
     inkscape:label="Layer 1"
     inkscape:groupmode="layer"
     id="layer1"
     transform="translate(-93.678151,-91.996698)"><path
       style="fill:#5b9b5b;stroke-width:0.149179;fill-opacity:1"
       d="m 106.32848,118.44642 c -0.50825,-0.0152 -0.64946,-0.0311 -0.68177,-0.0767 -0.38092,-0.53803 -0.76587,-1.71938 -0.9065,-2.78193 -0.209,-1.57917 -0.0494,-3.55279 0.46693,-5.77467 0.0907,-0.3903 0.16892,-0.71342 0.17381,-0.71805 0.005,-0.005 0.10854,0.0168 0.23032,0.0476 0.12177,0.0308 0.34473,0.0672 0.49546,0.0808 0.19018,0.0172 0.27406,0.0407 0.27406,0.0767 0,0.0285 -0.0637,0.28087 -0.14167,0.56078 -0.18816,0.67598 -0.3455,1.56141 -0.36989,2.08153 -0.0193,0.41207 -0.0181,0.41981 0.0521,0.32616 0.14655,-0.19546 0.60961,-0.62651 0.86542,-0.80561 0.58951,-0.41271 1.59378,-0.90726 2.59843,-1.2796 1.17761,-0.43644 1.74102,-0.56242 2.51521,-0.56242 0.55675,0 0.95388,0.081 1.41942,0.28944 0.57051,0.25546 0.86819,0.49847 2.00605,1.63763 0.72556,0.72638 1.12287,1.02727 1.71249,1.29689 0.3827,0.17499 1.11103,0.38134 1.35598,0.38417 0.10157,0.001 0.10261,0.003 0.027,0.0575 -0.15698,0.11222 -0.90861,0.35805 -1.46414,0.47885 -1.44124,0.31341 -1.76831,0.39999 -2.40238,0.63595 -0.766,0.28505 -1.00199,0.344 -1.60985,0.40215 -0.53108,0.0508 -1.40138,-0.003 -1.86683,-0.11559 -0.42846,-0.10357 -0.88003,-0.28042 -1.25878,-0.493 -0.35137,-0.1972 -0.9164,-0.67317 -1.13815,-0.95874 -0.1712,-0.22047 -0.51072,-0.8581 -0.63781,-1.19782 -0.0513,-0.13718 -0.096,-0.25352 -0.0993,-0.25854 -0.003,-0.005 -0.19126,0.0573 -0.41771,0.13844 -0.52458,0.18801 -0.87375,0.40387 -1.21988,0.75415 -0.53717,0.54363 -0.64563,0.89216 -0.57368,1.84363 0.10392,1.37441 0.56514,2.57736 1.38477,3.61178 0.12896,0.16276 0.23061,0.29872 0.22588,0.30214 -0.0352,0.0254 -0.47537,0.0326 -1.01501,0.0164 z m 5.85575,-4.89898 c -0.25769,-0.22002 -0.79964,-0.86148 -1.2362,-1.46316 -0.471,-0.64916 -0.6676,-0.83047 -0.93852,-0.86557 -0.5916,-0.0766 -1.26099,0.0105 -1.75746,0.22879 l -0.22695,0.0998 0.1421,0.0588 c 0.39957,0.16542 0.62457,0.2809 0.99471,0.51053 0.85589,0.53098 1.98621,1.12718 2.69993,1.4241 0.45085,0.18756 0.53628,0.18934 0.32239,0.007 z m 1.58583,0.0636 c 0.4558,-0.064 2.21481,-0.26803 2.31079,-0.26803 0.0157,0 -0.46582,-0.47244 -1.07006,-1.04988 -1.21218,-1.1584 -1.42371,-1.31726 -2.07304,-1.55691 -0.53328,-0.19683 -0.82802,-0.24689 -1.44131,-0.24478 -0.61783,0.002 -1.17628,0.0893 -1.72265,0.26909 -0.39099,0.12862 -0.73646,0.27355 -0.70716,0.29666 0.008,0.006 0.1237,-0.002 0.25769,-0.0186 0.35097,-0.0428 1.13063,-0.041 1.46161,0.003 1.10106,0.14794 1.93995,0.50349 3.16683,1.34222 0.2903,0.19845 0.68196,0.46082 0.87037,0.58304 0.18841,0.12221 0.33043,0.22221 0.31558,0.22221 -0.0718,0 -0.5972,-0.20764 -0.85524,-0.33798 -0.15956,-0.0806 -0.58243,-0.31509 -0.93971,-0.52108 -0.78892,-0.45487 -1.42092,-0.74847 -1.90822,-0.88647 -0.20097,-0.0569 -0.41565,-0.11824 -0.47706,-0.13627 -0.15719,-0.0461 -0.1459,2e-5 0.0986,0.40317 0.46282,0.76322 1.00211,1.42266 1.44725,1.76967 0.25194,0.1964 0.2789,0.20778 0.49209,0.20761 0.12406,-10e-5 0.4722,-0.0348 0.77366,-0.0771 z m -12.78913,-3.36361 c -1.89708,-0.18142 -3.356681,-1.03942 -4.496215,-2.64304 -0.0908,-0.12779 -0.370329,-0.60263 -0.621173,-1.05522 -0.674013,-1.21609 -0.825151,-1.4186 -1.702341,-2.28099 -0.602609,-0.59244 -0.596259,-0.58079 -0.229057,-0.42044 0.695959,0.3039 1.338616,0.36669 2.438987,0.2383 0.319647,-0.0373 0.530854,-0.0448 0.618132,-0.0221 0.315508,0.0823 0.722113,0.49316 1.02395,1.03459 0.512908,0.92004 0.982241,1.40769 1.749705,1.81799 0.631252,0.33748 1.266792,0.51538 1.855762,0.51944 l 0.31636,0.002 0.15367,0.19064 c 0.34207,0.42435 1.17987,0.92835 2.03875,1.22644 0.20098,0.0698 0.37309,0.13251 0.38248,0.13946 0.0757,0.056 -0.72081,0.59036 -1.2512,0.83944 -0.70734,0.33218 -1.54207,0.48363 -2.27781,0.41327 z m 6.1835,-0.20503 c -0.20685,-0.0997 -0.28244,-0.2611 -0.21186,-0.45246 0.0248,-0.0673 0.0571,-0.12238 0.0716,-0.12232 0.0146,6e-5 0.21832,0.0368 0.45279,0.0816 0.28542,0.0545 0.59539,0.083 0.93793,0.0862 l 0.51164,0.005 -0.12593,0.0733 c -0.0693,0.0403 -0.28123,0.14272 -0.47103,0.22754 -0.29383,0.13131 -0.39337,0.1564 -0.66991,0.16886 -0.27166,0.0122 -0.3527,0.001 -0.49527,-0.0675 z m 0.29227,-1.3304 c -0.79668,-0.0978 -2.08392,-0.37875 -2.78113,-0.60703 -0.56482,-0.18492 -1.1962,-0.47126 -1.60023,-0.72573 -0.37041,-0.23329 -0.99349,-0.76591 -0.94805,-0.8104 0.0164,-0.0161 0.62847,0.11128 1.36011,0.28301 0.73165,0.17172 1.55865,0.34716 1.83778,0.38987 2.35522,0.36036 4.51236,0.003 6.12973,-1.01414 0.48756,-0.30676 1.06895,-0.87001 1.43429,-1.38954 0.59114,-0.84062 1.19146,-2.1182 1.38565,-2.94889 0.0912,-0.39005 0.22602,-1.22164 0.22602,-1.39397 0,-0.17228 0.0491,-0.22237 0.36449,-0.37181 0.55774,-0.264269 0.98521,-0.309517 1.77762,-0.18816 0.60758,0.09305 1.20882,0.08088 1.67671,-0.03393 0.57518,-0.141136 1.27629,-0.488276 1.67674,-0.830191 0.12177,-0.103979 0.15389,-0.118186 0.13505,-0.05974 -0.19145,0.59385 -0.28784,0.825458 -0.57487,1.381321 -0.52271,1.01225 -0.69743,1.59403 -0.87331,2.9079 -0.11438,0.85436 -0.17782,1.1537 -0.34399,1.62302 -0.27608,0.77977 -0.56567,1.21751 -1.17134,1.77055 -0.71402,0.65198 -1.47085,1.02484 -2.39838,1.18159 -0.46333,0.0783 -0.97529,0.0605 -1.50703,-0.0523 l -0.32481,-0.0689 0.36541,-0.2231 c 0.48126,-0.29385 1.07329,-0.86057 1.32575,-1.26908 0.24872,-0.40246 0.37275,-0.6995 0.54427,-1.3034 0.23738,-0.83583 0.33912,-1.01506 0.92553,-1.6304 0.14838,-0.1557 0.26978,-0.29715 0.26978,-0.31433 0,-0.0172 -0.10845,0.0442 -0.241,0.13644 -0.13255,0.0922 -0.39998,0.25191 -0.59429,0.35486 -0.6654,0.35255 -0.75221,0.46602 -1.01384,1.32507 -0.17293,0.56782 -0.40165,0.98999 -0.83225,1.53614 -0.39419,0.49997 -1.11418,1.21676 -1.41767,1.41138 -0.71281,0.45709 -1.82727,0.80179 -2.97397,0.91984 -0.36963,0.038 -1.56884,0.0473 -1.83877,0.0141 z m -4.36455,-2.47534 c 0,-0.01 0.0455,-0.14383 0.10121,-0.2985 0.33545,-0.93212 1.10978,-1.74567 2.37542,-2.49574 1.00347,-0.59469 1.9526,-0.87146 3.87734,-1.13063 1.04897,-0.14125 1.47883,-0.22758 2.33452,-0.46882 0.0392,-0.011 0.0355,-0.002 -0.0104,0.0262 -0.15658,0.0951 -0.9704,0.35853 -1.84644,0.59769 -2.34057,0.63897 -3.73099,1.17261 -4.81271,1.84709 -0.50364,0.31403 -1.26656,1.00611 -1.69395,1.53665 -0.17873,0.22187 -0.32496,0.39562 -0.32496,0.38611 z m -3.14653,-0.6919 c -0.856152,-0.72452 -1.839417,-1.69967 -2.370299,-2.35073 -0.938082,-1.15044 -1.243671,-2.37525 -0.894831,-3.586495 0.04535,-0.157466 0.24512,-0.615045 0.443932,-1.016842 0.198812,-0.401797 0.434609,-0.924351 0.523993,-1.161231 0.262714,-0.696229 0.242409,-0.674798 0.754389,-0.796202 0.218031,-0.0517 0.30969,-0.05783 0.393671,-0.02633 0.120569,0.04522 0.117013,0.03256 0.194262,0.691487 0.08966,0.76484 0.403603,1.511331 0.86217,2.05009 0.129547,0.152203 0.247473,0.319259 0.262043,0.371234 0.0146,0.05197 0.004,0.190112 -0.0238,0.306969 -0.316608,1.33799 -0.392781,1.95008 -0.355425,2.85603 0.04028,0.97676 0.164129,1.62683 0.492015,2.58247 0.0776,0.22611 0.13718,0.41381 0.13245,0.41712 -0.005,0.003 -0.1913,-0.1486 -0.4146,-0.33757 z m 8.74939,-3.65056 c 0,-0.008 0.42198,-0.25383 0.93773,-0.54679 0.51575,-0.29296 1.12336,-0.66432 1.35025,-0.82523 0.81196,-0.575861 1.48129,-1.345476 1.98143,-2.278313 0.29159,-0.543869 0.37526,-0.75867 0.34293,-0.880412 -0.037,-0.139386 -0.30677,-0.258018 -0.63231,-0.278071 -0.40854,-0.02516 -0.46557,-0.04129 -0.402,-0.113688 0.27815,-0.316755 -0.56066,-2.079577 -1.38027,-2.90072 l -0.14362,-0.143893 0.668,6.96e-4 c 1.06109,0.0011 1.73568,0.121302 2.33261,0.415576 0.33222,0.163778 0.96891,0.734338 1.22682,1.099392 0.50724,0.71797 0.70453,1.45244 0.52036,1.937174 -0.13179,0.346871 -0.56472,1.024952 -0.99178,1.553404 -0.71737,0.887683 -1.6893,1.659625 -2.68025,2.128755 -0.52632,0.24917 -1.45384,0.5947 -1.85099,0.68955 -0.43876,0.10479 -1.27891,0.19844 -1.27891,0.14256 z m -3.47134,-0.63759 c 0.067,-0.0187 0.34049,-0.0805 0.60777,-0.13732 0.69502,-0.14782 2.28299,-0.65282 3.06657,-0.97521 1.20174,-0.494435 1.83253,-0.821007 2.61873,-1.355768 0.20097,-0.136697 0.37129,-0.243366 0.37848,-0.23704 0.025,0.02196 -0.18734,0.307716 -0.38458,0.51758 -0.85167,0.906196 -2.01587,1.513928 -3.60734,1.883078 -0.55484,0.1287 -1.40225,0.25095 -1.96912,0.28407 -0.21214,0.0124 -0.48619,0.0298 -0.609,0.0386 -0.17558,0.0126 -0.19727,0.009 -0.10151,-0.0179 z m -1.94924,-0.47658 c -0.59229,-0.14279 -0.81833,-0.23935 -1.32291,-0.56516 -0.37853,-0.244411 -1.06843,-0.887883 -1.40697,-1.312275 -0.34748,-0.435595 -0.702234,-1.150328 -0.822315,-1.656735 -0.139097,-0.586602 -0.12257,-1.364738 0.04095,-1.928049 0.288795,-0.994894 1.121625,-1.774632 2.266065,-2.121606 0.65691,-0.199165 1.22968,-0.190783 1.67936,0.02457 0.10607,0.0508 0.21765,0.09236 0.24797,0.09236 0.0303,0 0.19078,-0.09628 0.3566,-0.213958 0.70433,-0.499847 1.45965,-0.87695 2.04503,-1.021008 0.8109,-0.199558 1.70659,-0.02939 2.5063,0.476156 0.62749,0.396678 1.54239,1.316009 1.95048,1.95993 0.28315,0.446765 0.48018,1.135741 0.47757,1.669919 l -9.2e-4,0.179488 -0.11078,-0.202584 c -0.31655,-0.578918 -0.89647,-1.1031 -1.93769,-1.751459 -1.43717,-0.894909 -1.9271,-1.103016 -2.85853,-1.214196 -0.5514,-0.06582 -1.25001,0.01874 -1.75408,0.212318 -0.23352,0.08968 -0.54729,0.279355 -0.51407,0.310755 0.008,0.0076 0.11434,-0.01116 0.23612,-0.04179 0.32309,-0.08126 0.86886,-0.07254 1.1814,0.01887 0.24672,0.07216 0.83652,0.384039 0.8948,0.473162 0.0892,0.136364 -0.19437,0.136601 -0.83977,6.96e-4 -0.39535,-0.08325 -0.59438,-0.103026 -1.05562,-0.104905 -0.52139,-0.0021 -0.59526,0.0066 -0.89321,0.105002 -0.9798,0.323738 -1.54776,0.917073 -1.70567,1.781869 -0.14673,0.803593 0.11326,1.482377 0.88748,2.317028 0.73553,0.792937 1.94589,1.749962 2.70611,2.139712 0.16748,0.0859 0.29128,0.15636 0.27511,0.15665 -0.14618,0.003 -1.74115,-0.713114 -2.30193,-1.033076 -0.46923,-0.267723 -0.71375,-0.452248 -1.08669,-0.820068 -0.78533,-0.774546 -1.10053,-1.540935 -0.98931,-2.405454 0.0478,-0.371439 0.1998,-0.855528 0.34343,-1.093675 0.12626,-0.209351 0.15859,-0.299337 0.0947,-0.26372 -0.57769,0.322273 -0.83764,0.571426 -1.06786,1.023524 -0.28856,0.566653 -0.27801,1.312796 0.0278,1.966196 0.46653,0.996756 1.75994,2.297313 2.80722,2.822743 0.16157,0.0811 0.26636,0.1471 0.23287,0.14675 -0.0335,-2.9e-4 -0.29861,-0.0579 -0.58914,-0.12799 z m 3.89774,-2.363879 c -0.48539,-0.03868 -0.96328,-0.133049 -1.47671,-0.291613 -0.9315,-0.28768 -1.38504,-0.694463 -1.44986,-1.300413 -0.0867,-0.810226 0.68076,-1.844969 1.66343,-2.242814 0.54062,-0.218876 1.28426,-0.299477 1.79349,-0.194393 1.07848,0.222553 2.32081,0.98552 2.67238,1.641216 0.14812,0.27626 0.20982,0.664074 0.1494,0.939125 -0.0562,0.256073 -0.2897,0.615515 -0.51248,0.789072 -0.6085,0.474038 -1.77363,0.744768 -2.83965,0.65982 z m -0.65131,-0.415053 c -0.0212,-0.01745 -0.15854,-0.111025 -0.30516,-0.207947 -0.28996,-0.191673 -0.58394,-0.519844 -0.6701,-0.748053 -0.0665,-0.176067 -0.0739,-0.569357 -0.0138,-0.73223 0.0379,-0.10277 0.29991,-0.311991 0.3383,-0.270141 0.007,0.0077 -0.007,0.122628 -0.0305,0.255433 -0.0877,0.48919 0.10337,0.886244 0.56921,1.183114 0.34936,0.222646 0.68562,0.324556 1.15128,0.348921 0.3404,0.01781 0.4081,0.0104 0.5559,-0.06086 0.68289,-0.329259 0.5546,-1.19511 -0.24154,-1.630103 -0.67802,-0.370457 -1.50962,-0.240555 -1.70347,0.266096 -0.0695,0.181638 -0.11501,0.163649 -0.11501,-0.04545 0,-0.701343 1.01627,-1.095599 1.83828,-0.713146 0.47769,0.222259 0.80653,0.573087 0.93926,1.002097 0.12372,0.399843 0.0516,0.719022 -0.2309,1.022366 -0.1943,0.208617 -0.16778,0.208534 0.31686,-9.86e-4 0.85064,-0.367755 0.84271,-1.082066 -0.0211,-1.90367 -0.58375,-0.555195 -1.15677,-0.750633 -2.10425,-0.717681 -0.43316,0.01507 -0.56289,0.03479 -0.81802,0.124376 -0.37593,0.132003 -0.57513,0.246741 -0.82523,0.475338 -0.15642,0.142971 -0.21116,0.229232 -0.27878,0.439325 -0.16688,0.518464 -0.0433,1.226097 0.25574,1.463874 0.20126,0.160055 0.61541,0.328514 0.9919,0.403471 0.42902,0.08541 0.45251,0.0881 0.40116,0.04586 z m 1.3909,-0.428443 c 0.0441,-0.159449 -0.0322,-0.423368 -0.16311,-0.564316 -0.24194,-0.260425 -0.58532,-0.344759 -0.82991,-0.203821 -0.0726,0.04182 -0.13195,0.06652 -0.13195,0.05489 0,-0.141475 0.39477,-0.36068 0.64961,-0.360707 0.1807,-1.8e-5 0.53124,0.187503 0.65327,0.349478 0.0584,0.07755 0.0988,0.197419 0.11018,0.327131 0.0156,0.177438 0.003,0.222668 -0.0906,0.339265 -0.12015,0.148878 -0.23168,0.181679 -0.19748,0.05808 z m -5.15829,-0.274379 c -0.13004,-0.189581 -0.15902,-0.419416 -0.0889,-0.705109 0.15499,-0.631634 0.67205,-1.01524 1.49644,-1.110225 l 0.23654,-0.02725 -0.16206,0.242947 c -0.11934,0.178909 -0.24338,0.298576 -0.47059,0.45399 -0.35539,0.243103 -0.62097,0.556295 -0.78092,0.920914 -0.13967,0.318379 -0.1556,0.333919 -0.2305,0.224737 z"
       id="path1" /></g></svg>
